#!OML:ASF F:\VICON\USERDATA\INSTALL\rory3\rory3.ASF
:FULLY-SPECIFIED
:DEGREES
83
root 0.578518 18.4532 10.8218 9.93755 -0.625066 -5.80172
lowerback 11.4095 1.15704 6.80589
upperback -0.73557 2.47841 0.0902283
thorax -6.91812 0.960113 -4.16332
lowerneck -4.42923 -0.249657 -0.315189
upperneck -5.05619 -0.30768 0.360868
head -0.811657 -0.149287 0.158895
rclavicle 3.97569e-015 -1.68967e-014
rhumerus -11.7137 15.2228 -81.8447
rradius 103.138
rwrist -5.57319
rhand -38.3221 35.0032
rfingers 7.12502
rthumb -11.3499 5.33035
lclavicle 3.97569e-015 -1.68967e-014
lhumerus -68.219 -10.3537 97.3835
lradius 108.963
lwrist 39.5849
lhand -37.4717 14.2801
lfingers 7.12502
lthumb -10.5297 43.9963
rfemur 17.1111 5.90524 31.662
rtibia 11.3852
rfoot 28.3879 -10.0219
rtoes 6.95284
lfemur -55.0758 -0.823984 -13.039
ltibia 79.4884
lfoot 11.6127 -2.9642
ltoes -12.5874
84
root 0.573501 18.5436 11.396 9.90518 -0.177877 -5.86549
lowerback 11.1103 1.13665 6.98584
upperback -0.734574 2.44179 -0.0529353
thorax -6.73853 0.940688 -4.39921
lowerneck -4.99958 -0.411196 -0.433065
upperneck -4.46682 -0.509142 0.716324
head -0.537838 -0.248634 0.2814
rclavicle 1.40143e-014 5.1684e-015
rhumerus -11.6943 16.2111 -81.6125
rradius 103.761
rwrist -5.63098
rhand -38.3934 35.9568
rfingers 7.12502
rthumb -11.4186 6.28773
lclavicle 1.40143e-014 5.1684e-015
lhumerus -68.8077 -9.96258 97.3187
lradius 109.331
lwrist 40.1439
lhand -36.7728 13.0946
lfingers 7.12502
lthumb -9.85548 42.8439
rfemur 19.9976 5.91184 31.87
rtibia 8.27941
rfoot 33.1756 -10.3406
rtoes 12.6186
lfemur -54.7351 -1.90923 -12.5408
ltibia 74.4783
lfoot 11.4256 -3.98044
ltoes -11.9298
85
root 0.57681 18.62 11.9634 9.93802 0.332322 -6.23362
lowerback 10.8605 1.08712 7.6269
upperback -0.850207 2.43792 -0.16232
thorax -6.69358 0.912686 -4.86931
lowerneck -5.20021 -0.485301 -0.513374
upperneck -4.0554 -0.59815 1.08499
head -0.37904 -0.291425 0.403935
rclavicle 1.22253e-014 -1.66979e-014
rhumerus -11.9296 17.0239 -81.5257
rradius 104.452
rwrist -5.27554
rhand -38.1393 35.3347
rfingers 7.12502
rthumb -11.1736 5.65221
lclavicle 1.22253e-014 -1.66979e-014
lhumerus -69.4637 -9.69527 97.2641
lradius 109.857
lwrist 40.253
lhand -36.6 11.5695
lfingers 7.12502
lthumb -9.68875 41.3266
rfemur 22.1935 5.90824 32.4369
rtibia 6.38948
rfoot 36.0219 -10.1079
rtoes 18.253
lfemur -54.4022 -2.88252 -11.6979
ltibia 69.3884
lfoot 11.3126 -5.11135
ltoes -12.0192
86
root 0.579711 18.6891 12.5272 10.0636 0.655656 -6.38929
lowerback 10.6149 1.09259 7.93467
upperback -1.00355 2.46478 -0.254611
thorax -6.7 0.908466 -5.13921
lowerneck -5.03513 -0.54788 -0.473277
upperneck -4.14218 -0.682714 1.10454
head -0.431218 -0.334852 0.403096
rclavicle -4.82053e-014 3.57812e-015
rhumerus -12.3212 17.8335 -81.4486
rradius 105.255
rwrist -4.8554
rhand -37.2373 33.7891
rfingers 7.12502
rthumb -10.3036 4.06147
lclavicle -4.82053e-014 3.57812e-015
lhumerus -69.9948 -9.38799 97.2409
lradius 110.416
lwrist 39.8941
lhand -36.3999 9.95912
lfingers 7.12502
lthumb -9.49562 39.7252
rfemur 23.3023 6.03285 32.8935
rtibia 6.59505
rfoot 36.7189 -9.07943
rtoes 21.8526
lfemur -53.9014 -3.63536 -11.1783
ltibia 64.0223
lfoot 11.3743 -6.41755
ltoes -13.6824
87
root 0.573669 18.7509 13.0816 9.87145 0.733604 -6.20522
lowerback 10.7989 1.1608 7.58453
upperback -0.976326 2.52437 -0.262035
thorax -6.77916 0.947462 -4.96562
lowerneck -5.09287 -0.679616 -0.709635
upperneck -4.35731 -0.846419 1.06135
head -0.48518 -0.41344 0.427399
rclavicle -4.54223e-014 -7.95139e-015
rhumerus -12.4794 18.766 -81.0788
rradius 105.739
rwrist -3.97116
rhand -36.7771 33.4521
rfingers 7.12502
rthumb -9.85963 3.70298
lclavicle -4.54223e-014 -7.95139e-015
lhumerus -70.0808 -8.94402 97.3556
lradius 110.817
lwrist 39.299
lhand -35.7705 8.88727
lfingers 7.12502
lthumb -8.88836 38.6801
rfemur 23.7975 6.23118 33.1344
rtibia 8.84337
rfoot 35.4345 -7.93641
rtoes 21.8515
lfemur -52.8258 -4.19053 -11.1115
ltibia 58.4318
lfoot 11.612 -7.89614
ltoes -16.3113
88
root 0.563069 18.799 13.6238 9.32983 0.743169 -6.08629
lowerback 11.3445 1.22038 7.2716
upperback -0.788987 2.59757 -0.283171
thorax -6.88865 0.994015 -4.84176
lowerneck -5.47856 -0.817239 -0.980523
upperneck -4.18797 -1.01239 1.1957
head -0.368156 -0.491456 0.508821
rclavicle 1.54058e-014 -3.33958e-014
rhumerus -12.7135 19.7075 -80.8914
rradius 106.032
rwrist -2.76945
rhand -37.1201 34.19
rfingers 7.12502
rthumb -10.1905 4.45685
lclavicle 1.54058e-014 -3.33958e-014
lhumerus -69.9357 -8.55284 97.3597
lradius 111.249
lwrist 38.4817
lhand -35.2004 8.61332
lfingers 7.12502
lthumb -8.33816 38.4287
rfemur 24.1487 6.40648 33.5411
rtibia 11.9977
rfoot 33.5449 -7.14557
rtoes 20.233
lfemur -51.2196 -4.67804 -11.0035
ltibia 52.8145
lfoot 11.8519 -7.91737
ltoes -15.4498
89
root 0.555144 18.8303 14.1687 8.76181 0.733867 -6.67738
lowerback 11.8622 1.22348 7.5647
upperback -0.579588 2.69226 -0.0587608
thorax -6.94365 1.03609 -4.79991
lowerneck -5.98678 -0.862633 -1.04002
upperneck -3.96457 -1.06875 1.06835
head -0.21844 -0.517422 0.476197
rclavicle -2.3059e-014 -3.33958e-014
rhumerus -13.2394 20.8166 -80.877
rradius 106.406
rwrist -1.93147
rhand -37.5253 35.2894
rfingers 7.12502
rthumb -10.5814 5.57581
lclavicle -2.3059e-014 -3.33958e-014
lhumerus -69.5833 -8.07998 97.3768
lradius 111.626
lwrist 37.5234
lhand -35.0002 8.71368
lfingers 7.12502
lthumb -8.14497 38.5367
rfemur 24.1638 6.69783 34.6658
rtibia 15.6468
rfoot 31.5999 -6.54785
rtoes 17.5747
lfemur -49.381 -4.91787 -10.2058
ltibia 47.3351
lfoot 11.889 -7.91677
ltoes -16.8595
90
root 0.541174 18.8522 14.727 8.16419 0.598552 -7.29455
lowerback 12.2992 1.27429 7.71714
upperback -0.365541 2.82986 0.227435
thorax -6.95009 1.10776 -4.61657
lowerneck -6.39607 -0.913402 -1.01947
upperneck -3.92244 -1.13869 0.736555
head -0.141856 -0.552613 0.368795
rclavicle -2.98177e-014 -1.98785e-014
rhumerus -13.961 21.7524 -80.9164
rradius 106.679
rwrist -1.03492
rhand -37.6638 36.5922
rfingers 7.12502
rthumb -10.715 6.8855
lclavicle -2.98177e-014 -1.98785e-014
lhumerus -69.0784 -7.70629 97.4608
lradius 111.857
lwrist 36.4112
lhand -35.2239 10.2606
lfingers 7.12502
lthumb -8.36086 40.0752
rfemur 24.1516 7.09176 35.8048
rtibia 19.3839
rfoot 30.6613 -6.45643
rtoes 17.365
lfemur -47.2851 -5.17129 -9.35736
ltibia 42.1141
lfoot 12.1093 -7.19356
ltoes -18.0017
91
root 0.522389 18.8554 15.2752 7.4595 0.529572 -7.76136
lowerback 12.8926 1.3455 7.69411
upperback -0.0854307 2.97692 0.466278
thorax -6.97788 1.18977 -4.39321
lowerneck -6.78102 -0.946969 -0.929954
upperneck -4.09465 -1.18897 0.42361
head -0.135321 -0.579002 0.257012
rclavicle 2.09718e-014 1.47101e-014
rhumerus -14.754 22.1853 -81.0373
rradius 106.744
rwrist -0.0195491
rhand -38.1664 36.8913
rfingers 7.12502
rthumb -11.1998 7.21023
lclavicle 2.09718e-014 1.47101e-014
lhumerus -68.3048 -7.57577 97.6056
lradius 112.055
lwrist 35.5413
lhand -36.0792 12.2806
lfingers 7.12502
lthumb -9.18624 42.0605
rfemur 24.1498 7.35491 36.8244
rtibia 23.1795
rfoot 30.8314 -6.7463
rtoes 18.1709
lfemur -45.1479 -5.41235 -8.76354
ltibia 37.3907
lfoot 12.6123 -5.92813
ltoes -17.8131
92
root 0.513798 18.828 15.8152 6.89704 0.698099 -8.17622
lowerback 13.2143 1.2662 7.86157
upperback 0.145213 2.92598 0.629843
thorax -6.91818 1.17032 -4.31233
lowerneck -6.81157 -0.947032 -0.784795
upperneck -4.41384 -1.20184 0.194145
head -0.230428 -0.587353 0.164344
rclavicle 4.23411e-014 2.82274e-014
rhumerus -15.6429 22.6749 -81.372
rradius 106.655
rwrist 0.77005
rhand -38.8114 35.4531
rfingers 7.12502
rthumb -11.8218 5.8068
lclavicle 4.23411e-014 2.82274e-014
lhumerus -67.5159 -7.424 97.5867
lradius 112.125
lwrist 34.8115
lhand -36.4547 12.3586
lfingers 7.12502
lthumb -9.54856 42.1223
rfemur 23.8142 6.64126 37.3409
rtibia 27.2254
rfoot 31.3345 -6.82638
rtoes 18.1688
lfemur -43.3486 -5.72762 -8.36121
ltibia 33.2474
lfoot 12.8631 -4.65269
ltoes -18.2111
93
root 0.505237 18.7931 16.3537 6.41363 0.963709 -8.64524
lowerback 13.334 1.16753 8.18473
upperback 0.335934 2.85356 0.746908
thorax -6.78071 1.13757 -4.35649
lowerneck -6.25678 -1.00331 -0.627408
upperneck -5.15222 -1.29275 0.151889
head -0.543221 -0.633848 0.13013
rclavicle -2.90226e-014 -3.18055e-014
rhumerus -16.7249 22.9431 -81.847
rradius 106.392
rwrist 1.18219
rhand -39.0269 34.395
rfingers 7.12502
rthumb -12.0296 4.76073
lclavicle -2.90226e-014 -3.18055e-014
lhumerus -66.6893 -7.4512 97.5531
lradius 112.179
lwrist 34.2634
lhand -36.5109 12.0792
lfingers 7.12502
lthumb -9.60277 41.8404
rfemur 23.177 5.85113 37.8421
rtibia 31.4495
rfoot 31.8494 -7.04693
rtoes 17.5686
lfemur -41.6259 -5.98524 -7.99329
ltibia 29.8472
lfoot 12.3207 -3.57583
ltoes -19.6689
94
root 0.491052 18.7581 16.8919 6.06642 0.996104 -8.84658
lowerback 13.3738 1.20128 8.24335
upperback 0.436276 2.90284 0.714499
thorax -6.6837 1.16645 -4.43198
lowerneck -5.46048 -1.03263 -0.638032
upperneck -5.88748 -1.32883 0.419946
head -0.894064 -0.651877 0.220987
rclavicle -2.88238e-014 -7.95139e-016
rhumerus -18.0938 23.0156 -82.4896
rradius 106.009
rwrist 1.15554
rhand -39.4233 32.8614
rfingers 7.12502
rthumb -12.4118 3.24992
lclavicle -2.88238e-014 -7.95139e-016
lhumerus -66.0073 -7.75309 97.6793
lradius 112.582
lwrist 33.6182
lhand -36.8833 11.9837
lfingers 7.12502
lthumb -9.9621 41.7279
rfemur 22.2234 5.34983 38.0365
rtibia 35.8008
rfoot 32.5263 -7.64462
rtoes 15.5036
lfemur -39.9979 -5.90802 -8.05778
ltibia 27.1872
lfoot 11.3326 -2.36215
ltoes -20.9052
95
root 0.483983 18.722 17.4438 5.81519 1.13367 -8.47724
lowerback 13.0935 1.19863 7.85824
upperback 0.597366 2.79118 0.513201
thorax -6.37439 1.13993 -4.39497
lowerneck -5.33923 -1.07119 -0.677932
upperneck -6.0451 -1.36552 0.795266
head -0.959754 -0.671913 0.343329
rclavicle -2.24627e-014 -4.8901e-014
rhumerus -19.3274 23.0302 -83.105
rradius 105.443
rwrist 0.716924
rhand -39.5158 33.199
rfingers 7.12502
rthumb -12.501 3.59296
lclavicle -2.24627e-014 -4.8901e-014
lhumerus -65.1173 -8.13936 97.7093
lradius 112.862
lwrist 33.2473
lhand -37.5255 10.6301
lfingers 7.12502
lthumb -10.5816 40.3437
rfemur 20.9996 4.67163 37.4784
rtibia 40.3406
rfoot 33.3452 -8.2304
rtoes 14.3064
lfemur -38.3852 -5.52086 -9.12559
ltibia 25.2189
lfoot 10.2178 -1.58938
ltoes -23.7026
96
root 0.484175 18.6814 18.0061 5.44695 1.3839 -7.98046
lowerback 12.8278 1.10269 7.4678
upperback 0.798378 2.55792 0.29311
thorax -6.04601 1.0543 -4.35444
lowerneck -5.23359 -1.1016 -0.705547
upperneck -6.14901 -1.3947 1.07835
head -1.00716 -0.688313 0.43571
rclavicle -3.67752e-015 4.77083e-015
rhumerus -20.6963 22.9301 -83.8546
rradius 104.648
rwrist 0.242271
rhand -38.8401 34.1592
rfingers 7.12502
rthumb -11.8494 4.51446
lclavicle -3.67752e-015 4.77083e-015
lhumerus -63.9606 -8.52192 97.5335
lradius 112.885
lwrist 34.1594
lhand -37.6337 9.83595
lfingers 7.12502
lthumb -10.686 39.5442
rfemur 19.6531 3.85005 36.709
rtibia 45.1006
rfoot 34.2186 -8.81533
rtoes 16.6408
lfemur -36.6352 -4.94519 -10.5585
ltibia 23.6686
lfoot 9.87472 -0.100936
ltoes -23.7018
